<?xml version="1.0" encoding="UTF-8"?><svg id="Layer_2" xmlns="http://www.w3.org/2000/svg" viewBox="0 0 54.77 59.43"><defs><style>.cls-1{fill:none;}.cls-2{fill:#c6e9f4;}.cls-3{fill:#231f20;}</style></defs><g id="highlights"><path class="cls-2" d="m27.85,27.3s9.18-15.63,5.2-21.71c-1.7-2.6-7.57-6.58-9.41-1.7-1.07,2.84-.41,6.56.13,9.45.38,2.04.89,4.06,1.47,6.05.37,1.29.77,2.57,1.19,3.84.19.59,1.67,3.63,1.42,4.06Z"/><path class="cls-3" d="m37.29,21.47c-1.26-1.93-3.35-2.88-5.64-2.49-2.58.44-4.14,2.64-5,4.94-.31.82-.78,1.84-1.11,2.87-.74.5-1.39,1.05-1.83,1.51-1.42,1.46-1.34,3.02-.24,4.68.93,1.39,2.44,2.07,4.1,1.77,1.66-.29,2.72-1.6,3.37-3.06,2.36-.74,4.74-2.51,5.97-3.76,1.97-2,1.89-4.16.38-6.46Z"/><path class="cls-2" d="m29.97,27.78s9.45-15.47,16.68-14.83c3.09.27,9.38,3.57,5.94,7.49-2,2.28-5.59,3.46-8.39,4.35-1.98.63-4,1.13-6.03,1.56-1.31.28-2.63.53-3.95.76-.61.11-3.99.24-4.25.66Z"/><rect class="cls-1" width="54.77" height="59.43"/></g></svg>