<?xml version="1.0" encoding="UTF-8"?><svg xmlns="http://www.w3.org/2000/svg" xmlns:xlink="http://www.w3.org/1999/xlink" viewBox="0 0 649.75 919.51"><defs><style>.cls-1,.cls-2,.cls-3,.cls-4,.cls-5,.cls-6{fill:none;}.cls-7,.cls-8,.cls-2,.cls-9{mix-blend-mode:darken;}.cls-7,.cls-8,.cls-10{fill:#1c3664;}.cls-7,.cls-2,.cls-9{opacity:.43;}.cls-8{opacity:.2;}.cls-2,.cls-3{stroke:#1c3664;}.cls-2,.cls-3,.cls-4,.cls-11,.cls-5,.cls-6{stroke-miterlimit:10;}.cls-12{clip-path:url(#clippath);}.cls-13{fill:#f89938;}.cls-14{fill:#ec008c;}.cls-15{fill:#fff;}.cls-16{fill:#881d5c;}.cls-17{fill:#e0822c;}.cls-18{fill:#c6e9f4;}.cls-19,.cls-11{fill:#231f20;}.cls-20{clip-path:url(#clippath-1);}.cls-3{stroke-width:10px;}.cls-4{stroke-width:2px;}.cls-4,.cls-5{stroke:#fff;}.cls-11{stroke-width:15px;}.cls-11,.cls-6{stroke:#231f20;}.cls-21{isolation:isolate;}.cls-5{stroke-width:7px;}.cls-6{stroke-width:.5px;}</style><clipPath id="clippath"><path class="cls-1" d="m394.69,474.14s-88.95-33.59-101.49-132.89c-2.11-16.72.41-33.67,6.64-49.32,6.14-15.42,12.96-38.48,8.27-56.57-7.76-29.94-15.52-55.44,15.52-95.35s111.99-45.46,133.05-34.37c102.84,54.12,44.35,171.86,34.37,200.69s-13.68,24.87-5.54,63.2c15.19,71.56-56.32,119.54-90.82,104.62Z"/></clipPath><clipPath id="clippath-1"><path class="cls-1" d="m403.61,388.56c-.39-.53-1.14-.52-1.59-.05-1.88,1.95-5.23,1.39-6.93.93-.56-.15-1.12.18-1.27.74-.6,2.19-2.14,4.19-3.58,5.68.52.45,3.3,2.64,7.06,1.46,0,0,2.86,1.67,7.75-1.19,0,0,3.7,0,5.37-2.27.03-.04.06-.08.08-.12-3.46-1.15-5.77-3.67-6.89-5.18Z"/></clipPath></defs><g class="cls-21"><g id="Layer_2"><g id="Layer_6"><path class="cls-8" d="m646.11,510.77c-13.34-10-17.3-28.29-9.3-42.92,12.46-22.77-5.86-37.73-16.84-55.3-11.47-18.34-13.97-42.45-5.46-62.46,5.89-13.84,16.4-25.69,20.01-40.29,6.46-26.17-10.28-44.67-19.85-66.9-8.43-19.58-6.05-42.68-3.31-63.15,5.51-41.12-1.16-88.45-28-121.49-30.44-37.47-93.06-51.2-138.86-52.86l-45.51-1.65c-43.81-1.59-28.7-1.93-53.71,20.04-20.94,18.4-70.12,55.98-59.6,81.8-12.41,17.21-19.11,37.45-19.42,58.3-.38,25.55,11.9,47.04,7.18,71.97-2.29,12.1-17.83,27.04-21.39,38.81-8.53,28.21,4.01,46.46-2.55,62.91-11.55,28.99-43.03,48.44-46.19,79.39-2.76,27,3.51,51.05-8.99,76.74-2.62,9.4-3.8,18.67-3.74,27.65L26.58,704.36c-15.01,16.87-4.14,43.64,18.39,45.26h0c51.12,3.68,102.41-4.4,149.91-23.64l71.39-22.22-115.08,215.15,378.13-3.59s-10.07-59.28,17.19-116.51l77.24-179.46c.23-5.26-.04-10.43-.73-15.47,2.35.6,4.29.61,5.69-.16,15.96-8.73-7.05-76.06,12.26-76.68,8.54-.27,11.98-11.14,5.14-16.27Zm-474.38,123.59l38.76-55.12c3.46,4.54,7.3,8.78,11.47,12.66l-50.23,42.46Z"/></g><g id="Layer_3"><ellipse class="cls-16" cx="395.77" cy="107.91" rx="78.72" ry="73.18"/><path class="cls-14" d="m325.93,142.41l2.46-24.09c5.18-22.99,35.81-32.04,59.35-30.94l1.14.05c27.11,1.27,48.22,23.56,48.01,50.51-.25,32.59,26.61,58.88,59.19,57.92,16.25,14.28,18.64,38.71,5.47,55.88-21.2,27.62-35.55,59.86-41.89,94.1l-32.52,175.59,50.76,34.54c6.44,4.38,14.19,6.39,21.95,5.68l4.5-.41c7.17-.65,13.67-4.48,17.71-10.44,10.57-15.56,79.34,55.74,93.61,47.94,15.96-8.73-7.05-76.06,12.26-76.68,8.54-.27,11.98-11.14,5.14-16.27-13.34-10-17.3-28.29-9.3-42.92,12.46-22.77-5.86-37.73-16.84-55.3-11.47-18.34-13.97-42.45-5.46-62.46,5.89-13.84,16.4-25.69,20.01-40.29,6.46-26.17-10.28-44.67-19.85-66.9-8.43-19.58-6.05-42.68-3.31-63.15,5.51-41.12-1.16-88.45-28.01-121.49C535.24,10.1,468.89-.6,416.31.03c-29.68.35-59.94,6.44-86.18,20.7-15.13,8.22-29.48,19.12-40.31,32.61-5.7,7.1-10.59,15.07-13.17,23.86-1.87,6.39-.12,18.08-3.99,23.44-12.41,17.21-19.11,37.45-19.42,58.3-.38,25.55,11.9,47.04,7.18,71.97-2.29,12.1-17.83,27.04-21.39,38.81-8.53,28.21,4.01,46.46-2.55,62.91-11.55,28.99-43.03,48.44-46.19,79.39-2.76,27,3.51,51.05-8.99,76.74-21.82,78.2,55.34,147.58,130.79,117.59,47.89-19.04,86.18-34.74,85.55-36.01-1.69-3.37.84-161.9.84-161.9l-72.55-266.03Z"/><path class="cls-19" d="m388,453.04s27.12,45.21-28.86,92.42c0,0,89.43,21.16,147.57-29,0,0-49.91-14.04-35.6-72.87,3.92-16.13-83.1,9.45-83.1,9.45Z"/><path class="cls-19" d="m453.63,512.66l73.19,5.56c45.38,4.7,79.26,43.93,77.28,89.52l-77.24,179.46c-17.45,40.55-24.92,84.69-21.77,128.72h0s-378.13,3.59-378.13,3.59l119.66-227.36-71.39,22.22c-47.51,19.24-98.79,27.32-149.91,23.64h0c-22.53-1.62-33.4-28.39-18.39-45.26l219.34-244.71,33.51,21.54-107.7,153.17,63.24-53.47c44.13-37.31,100.16-57.6,157.94-57.19l80.37.57Z"/></g><g id="Layer_2-2"><path class="cls-13" d="m394.69,474.14s-88.95-33.59-101.49-132.89c-2.11-16.72.41-33.67,6.64-49.32,6.14-15.42,12.96-38.48,8.27-56.57-7.76-29.94-15.52-55.44,15.52-95.35s111.99-45.46,133.05-34.37c102.84,54.12,44.35,171.86,34.37,200.69s-13.68,24.87-5.54,63.2c15.19,71.56-56.32,119.54-90.82,104.62Z"/><path class="cls-19" d="m428.21,195.43c17.2-13.18,41.42-11.51,59.68-1.35,6.33,3.52,12.01-6.19,5.68-9.71-21.42-11.91-50.75-14.19-71.04,1.35-5.67,4.34-.07,14.12,5.68,9.71h0Z"/><path class="cls-7" d="m491.06,306.32c19.82-23.19-13.68,24.87-5.54,63.2,15.19,71.56-56.32,119.54-90.82,104.62,0,0,59.85,3.91,80.95-60.75,13.88-42.55.64-89.78,15.42-107.07Z"/><g class="cls-12"><g class="cls-9"><line class="cls-3" x1="382.62" y1="270.39" x2="412.9" y2="269.39"/><circle class="cls-10" cx="332.03" cy="268.03" r="59.57"/><circle class="cls-10" cx="467.26" cy="263.55" r="59.57"/></g></g><line class="cls-11" x1="379.15" y1="266.5" x2="409.42" y2="265.5"/><circle class="cls-19" cx="328.56" cy="264.14" r="59.57"/><circle class="cls-19" cx="463.78" cy="259.66" r="59.57"/><ellipse class="cls-19" cx="397.22" cy="323.94" rx="31.81" ry="22.21"/><path class="cls-14" d="m325.29,132.2h0c-3.27-26.29,15.25-50.59,41.56-53.75,3.86-.46,7.74-.61,11.53-.43l1.14.05c27.11,1.27,48.22,23.56,48.01,50.49h0c-.25,32.61,32.61,48.9,65.19,47.93h0c16.25,14.28,12.64,48.71-.53,65.88h0c-9.75,12.7-18.05,26.38-24.79,40.78-15.72,33.58-18.45,72.01-6.02,106.94,9.34,26.22,25.94,46.91,54.65,19.92,55.44-52.11,25.5-223.97,25.5-223.97l-22.18-118.64-175.19-24.39c83.47-58.17-53.58,55.06-18.89,89.18Z"/><path class="cls-19" d="m300.19,200.98c13.1-14.01,36.8-14.61,52.39-4.6,6.11,3.92,11.76-5.81,5.68-9.71-19.68-12.63-49.61-11.19-66.02,6.36-4.94,5.29,3,13.26,7.95,7.95h0Z"/><line class="cls-5" x1="289.18" y1="280.58" x2="340.03" y2="229.73"/><line class="cls-5" x1="423.2" y1="269.81" x2="474.06" y2="218.96"/><line class="cls-4" x1="301.14" y1="290.16" x2="352" y2="239.3"/><line class="cls-4" x1="433.67" y1="281.49" x2="484.53" y2="230.64"/><path class="cls-17" d="m226.27,448.04l20.37-23.55c14.45-16.7,38.43-21.39,58.1-11.35l36.06,18.4c2.34,1.19,4.86,2,7.46,2.38l76.63,11.35h0c-6.57,9.39-17.18,15.15-28.64,15.53l-40.33,1.37c-19.56.66-39.1-1.48-58.05-6.37l-17.68-4.56-20.41,18.33-33.51-21.54Z"/><path class="cls-7" d="m424.88,445.28c-6.57,9.39-17.18,15.15-28.64,15.53l-40.33,1.37c-19.56.66-39.1-1.48-58.05-6.37l-17.68-4.56-20.41,18.33-12.15-8.19,32.81-20.64s20.11,15.35,48.69,16.41c18.88.7,44.37-.11,61.44-.18,11.01-.05,7.85-2.94,9.81-3.05.4,2-1.62,2.66,0,2.6s6.89-.84,7.72-1.07c7.24-2.03,16.79-10.17,16.79-10.17Z"/><line class="cls-2" x1="335.13" y1="446.12" x2="395.98" y2="451.89"/><line class="cls-2" x1="343.99" y1="439.46" x2="417.62" y2="449.61"/><path class="cls-14" d="m403.8,452.77s-4.98,2.78-11.12,2.78-11.12-1.24-11.12-2.78,6.52-1.52,12.66-1.52,9.58,1.52,9.58,1.52Z"/><path class="cls-14" d="m425.29,450.01s-5.08,2.58-11.22,2.34c-6.14-.24-11.06-1.68-11-3.22s4.86-.8,11-.55,11.22,1.43,11.22,1.43Z"/><path class="cls-14" d="m434.11,445.4s-5.08,2.58-11.22,2.34c-6.14-.24-11.06-1.68-11-3.22s4.96-.65,11.1-.41,11.12,1.29,11.12,1.29Z"/></g><g id="Layer_4"><path class="cls-14" d="m430.42,387.78c-3.27.68-5.84-2.92-6.84-5.56-1.44-3.79-1.37-7.97-2.87-11.75-1.48-3.74-4.24-6.53-8.03-7.91-3.53-1.28-7.59-.94-10.81,1-2.15,1.3-3.82,3.16-4.93,5.32-1.31-1.65-2.99-3.01-4.94-3.88-3.7-1.64-7.86-1.43-11.45.4-7.87,4.01-8.57,13.98-5.36,21.28,2.06,4.68,5.49,8.59,8.84,12.39.16.18.32.3.49.4-3.61,4.98-4.67,11.72-2.59,17.55,2.3,6.42,7.81,11.43,14.36,13.3,11.87,3.39,25.76-4.77,28.42-16.86,1-4.56.41-9.29,1.34-13.85.64-3.14,2.2-6.77,5.44-7.98,2.4-.9,1.49-4.39-1.06-3.86Z"/><path class="cls-19" d="m389.22,396.86c1.64-1.52,3.86-3.97,4.6-6.69.15-.56.71-.89,1.27-.74,1.7.46,5.04,1.03,6.93-.93.46-.47,1.2-.48,1.59.05,1.21,1.64,3.79,4.48,7.75,5.46.99.25,1.25,1.54.39,2.11-3.13,2.06-8.71,5.17-13.62,4.97-3.79-.15-6.56-.85-8.35-1.5-1.15-.41-1.46-1.9-.56-2.74Z"/><path class="cls-15" d="m403.61,388.56c-.39-.53-1.14-.52-1.59-.05-1.88,1.95-5.23,1.39-6.93.93-.56-.15-1.12.18-1.27.74-.6,2.19-2.14,4.19-3.58,5.68.52.45,3.3,2.64,7.06,1.46,0,0,2.86,1.67,7.75-1.19,0,0,3.7,0,5.37-2.27.03-.04.06-.08.08-.12-3.46-1.15-5.77-3.67-6.89-5.18Z"/><g class="cls-20"><line class="cls-6" x1="397.06" y1="398.15" x2="397.39" y2="389.75"/><line class="cls-6" x1="405.02" y1="396.73" x2="405.35" y2="389.93"/></g></g><g id="highlights"><path class="cls-15" d="m384.87,367.65c-3.48.19-6.58,2.55-7.66,5.87-.24.75.28,1.67,1.05,1.85.82.19,1.59-.25,1.85-1.05.04-.14.09-.27.15-.4,0-.01,0-.02.01-.03.03-.07.06-.13.1-.2.15-.29.32-.57.51-.84,0,0,0,0,0-.01.04-.04.08-.1.11-.14.11-.12.22-.25.33-.36.11-.12.23-.23.36-.34.06-.05.11-.1.17-.15,0,0,0,0,0,0-.01,0-.02,0-.03.02.04-.02.07-.05.11-.07,0,0,0,0,0,0,.24-.14.47-.33.71-.47.13-.07.26-.14.4-.21.05-.02.11-.05.16-.07.02,0,.04-.02.06-.02.29-.11.59-.2.9-.27.16-.04.33-.04.48-.09-.02,0-.02,0-.04.01.09,0,.18-.01.27-.02.78-.04,1.54-.66,1.5-1.5-.03-.78-.66-1.54-1.5-1.5Z"/><path class="cls-15" d="m384.6,370.67s0,0,0,0c-.14.01-.29.09,0,0Z"/><path class="cls-15" d="m381.86,371.84c.17-.09.15-.1.08-.05,0,0,0,0,0,0-.02.01-.05.03-.07.05Z"/><path class="cls-15" d="m390.11,367.68c-1.93,0-1.93,3,0,3s1.93-3,0-3Z"/><path class="cls-15" d="m409.36,365.2c-1.9-.59-3.93-.32-5.71.51-1.8.84-3.13,2.34-3.89,4.15-.3.73.33,1.68,1.05,1.85.88.2,1.52-.27,1.85-1.05-.16.38-.01.04.02-.02.04-.08.08-.15.12-.23.08-.15.18-.3.27-.44.04-.06.08-.14.13-.19.01-.01.03-.03.04-.04.11-.13.23-.26.35-.38.12-.12.25-.24.38-.35.04-.03.08-.07.12-.1.03-.02.03-.02.03-.02.03-.02.07-.04.09-.05.3-.21.62-.38.95-.54.01,0,.01,0,.02-.01.07-.03.13-.05.2-.08.16-.06.33-.11.5-.16.18-.05.37-.09.56-.13.02,0,.04,0,.06-.01,0,0,.02,0,.06,0,.03,0,.07,0,.1,0,.36-.03.72-.02,1.09,0,.01,0,.01,0,.02,0,.06.01.13.02.19.04.2.04.41.1.6.16.75.23,1.67-.28,1.85-1.05.19-.81-.25-1.6-1.05-1.85Z"/><path class="cls-15" d="m394.18,422.62c.28.12-.13-.06-.15-.07-.1-.05-.21-.1-.31-.15-.23-.11-.45-.24-.67-.36-.22-.13-.43-.26-.64-.41-.1-.06-.19-.13-.28-.2,0,0-.12-.09-.18-.13-.77-.6-1.46-1.3-2.07-2.06-.01-.02-.01-.02-.02-.02,0-.01-.02-.02-.04-.06-.08-.11-.16-.22-.24-.34-.13-.19-.26-.38-.38-.58-.26-.43-.49-.89-.71-1.34-.02-.04-.03-.05-.03-.07,0,0,0,0,0-.02-.04-.11-.09-.21-.13-.32-.1-.26-.19-.52-.27-.79-.15-.49-.26-.98-.34-1.48-.13-.78-1.13-1.28-1.85-1.05-.84.27-1.19,1.01-1.05,1.85.79,4.73,4.18,8.68,8.56,10.5.73.3,1.68-.33,1.85-1.05.2-.88-.27-1.52-1.05-1.85Z"/><path class="cls-15" d="m385.19,407.22c-1.93,0-1.93,3,0,3s1.93-3,0-3Z"/><path class="cls-15" d="m389.16,307.8c-.23-.82-1.05-1.21-1.85-1.05-4.88,1.01-9.41,3.38-13.07,6.74-.6.55-.56,1.57,0,2.12.59.59,1.52.55,2.12,0,3.3-3.03,7.37-5.06,11.75-5.97.79-.16,1.25-1.1,1.05-1.85Z"/><path class="cls-15" d="m393.96,305.95c-1.93,0-1.93,3,0,3s1.93-3,0-3Z"/><path class="cls-18" d="m323.61,427.18s9.18-15.63,5.2-21.71c-1.7-2.6-7.57-6.58-9.41-1.7-1.07,2.84-.41,6.56.13,9.45.38,2.04.89,4.06,1.47,6.05.37,1.29.77,2.57,1.19,3.84.19.59,1.67,3.63,1.42,4.06Z"/><path class="cls-19" d="m333.05,421.36c-1.26-1.93-3.35-2.88-5.64-2.49-2.58.44-4.14,2.64-5,4.94-.31.82-.78,1.84-1.11,2.87-.74.5-1.39,1.05-1.83,1.51-1.42,1.46-1.34,3.02-.24,4.68.93,1.39,2.44,2.07,4.1,1.77,1.66-.29,2.72-1.6,3.37-3.06,2.36-.74,4.74-2.51,5.97-3.76,1.97-2,1.89-4.16.38-6.46Z"/><path class="cls-18" d="m325.73,427.67s9.45-15.47,16.68-14.83c3.09.27,9.38,3.57,5.94,7.49-2,2.28-5.59,3.46-8.39,4.35-1.98.63-4,1.13-6.03,1.56-1.31.28-2.63.53-3.95.76-.61.11-3.99.24-4.25.66Z"/><rect class="cls-1" x="295.76" y="399.89" width="54.77" height="59.43"/></g></g></g></svg>